<svg width="223" height="62" viewBox="0 0 223 62" fill="none" xmlns="http://www.w3.org/2000/svg">
<g id="Group 2">
<g id="d">
<path id="e" d="M110.7 56V17H130.2C135.7 17 140.7 22 140.7 27.5C140.7 33 140.7 56 140.7 56H133.7C133.7 56 133.7 38 133.7 29C133.7 26.28 131.7 24 128.7 24H117.7V61L110.7 56Z" fill="white"/>
<path id="f" d="M153.7 56V17H160.7V56H153.7Z" fill="white"/>
<path id="g" d="M153.7 8H160.7V0L153.7 5V8Z" fill="white"/>
<path id="h" d="M180.7 56H173.7V17H212.2C218.2 17 222.7 21.5 222.7 27.5V56L215.7 61V29C215.7 26 213.7 24 210.7 24H201.7V56H194.7V24H180.7V56Z" fill="white"/>
</g>
<g id="Group">
<path id="s" d="M72.43 39.79C68.54 41.47 63.09 42.17 63.09 42.17L45.53 33.44L27.97 42.17C27.97 42.17 22.52 41.47 18.63 39.79C12.73 37.09 6.29999 30.36 4.42999 27.73C4.42999 27.73 9.31999 39.35 12.65 47.41C19.82 56.9 32.6 61.82 45.53 61.85C58.46 61.82 71.23 56.9 78.41 47.41C81.74 39.35 86.63 27.73 86.63 27.73C84.76 30.36 78.34 37.09 72.43 39.79Z" fill="#FFE953"/>
<path id="t" d="M84.76 15.51C83.15 14.05 80.84 12.75 78.03 11.54C76.27 8.68001 73.36 3.61001 73.36 3.61001C73.36 3.61001 70.45 5.93001 67.01 8.12001C62.6 7.20001 57.63 6.63001 52.36 6.31001C48.92 3.64001 45.52 0.850006 45.52 0.850006C45.52 0.850006 42.12 3.64001 38.68 6.31001C33.41 6.63001 28.44 7.20001 24.03 8.12001C20.59 5.93001 17.68 3.61001 17.68 3.61001C17.68 3.61001 14.77 8.69001 13.01 11.54C10.21 12.75 7.89 14.05 6.27999 15.51C3.74 14.49 0.679993 13.29 0.679993 13.29C4.03999 20.11 6.46999 26.97 12.64 31.06C17.57 23.22 31.51 19.63 45.52 19.86C59.53 19.64 73.47 23.22 78.4 31.06C84.56 26.97 86.99 20.11 90.36 13.29C90.36 13.29 87.3 14.5 84.76 15.51Z" fill="#F3D400"/>
</g>
</g>
</svg>
